<?xml version="1.0" encoding="UTF-8" standalone="no"?>
<!DOCTYPE svg PUBLIC "-//W3C//DTD SVG 1.1//EN" "http://www.w3.org/Graphics/SVG/1.1/DTD/svg11.dtd">
<svg xmlns="http://www.w3.org/2000/svg" xmlns:xl="http://www.w3.org/1999/xlink" xmlns:dc="http://purl.org/dc/elements/1.1/" version="1.1" viewBox="-443 101 1584 871" width="1584" height="871">
  <defs>
    <linearGradient x1="0" x2="1" id="Gradient" gradientUnits="userSpaceOnUse">
      <stop offset="0" stop-color="#f5f8ff"/>
      <stop offset="1" stop-color="#deebfd"/>
    </linearGradient>
    <linearGradient id="Obj_Gradient" xl:href="#Gradient" gradientTransform="translate(86 368) scale(842)"/>
    <marker orient="auto" overflow="visible" markerUnits="strokeWidth" id="FilledArrow_Marker" stroke-linejoin="miter" stroke-miterlimit="10" viewBox="-1 -3 7 6" markerWidth="7" markerHeight="6" color="black">
      <g>
        <path d="M 4.8 0 L 0 -1.8 L 0 1.8 Z" fill="currentColor" stroke="currentColor" stroke-width="1"/>
      </g>
    </marker>
    <linearGradient x1="0" x2="1" id="Gradient_2" gradientUnits="userSpaceOnUse">
      <stop offset="0" stop-color="#e3eaf2"/>
      <stop offset="1" stop-color="#cbd7e6"/>
    </linearGradient>
    <linearGradient id="Obj_Gradient_2" xl:href="#Gradient_2" gradientTransform="translate(86 820.7574) scale(842)"/>
    <marker orient="auto" overflow="visible" markerUnits="strokeWidth" id="FilledArrow_Marker_2" stroke-linejoin="miter" stroke-miterlimit="10" viewBox="-1 -3 7 6" markerWidth="7" markerHeight="6" color="black">
      <g>
        <path d="M 4.8 0 L 0 -1.8 L 0 1.8 Z" fill="currentColor" stroke="currentColor" stroke-width="1"/>
      </g>
    </marker>
  </defs>
  <metadata> Produced by OmniGraffle 7.25.1\n2025-12-30 21:37:43 +0000</metadata>
  <g id="Canvas_1" fill="none" stroke-opacity="1" stroke-dasharray="none" fill-opacity="1" stroke="none">
    <title>Canvas 1</title>
    <g id="Canvas_1_Compile">
      <title>Compile</title>
      <g id="Graphic_23">
        <path d="M 126 101 L 888 101 C 910.0914 101 928 118.90861 928 141 L 928 595 C 928 617.0914 910.0914 635 888 635 L 126 635 C 103.90861 635 86 617.0914 86 595 L 86 141 C 86 118.90861 103.90861 101 126 101 Z" fill="url(#Obj_Gradient)"/>
        <text transform="translate(91 606)" fill="black">
          <tspan font-family="Inter" font-weight="bold" font-size="11" fill="black" x="388.8804" y="11" xml:space="preserve">Compilers</tspan>
        </text>
      </g>
      <g id="Line_39">
        <line x1="49.796875" y1="367.6122" x2="97.6" y2="367.634" marker-end="url(#FilledArrow_Marker)" stroke="black" stroke-linecap="round" stroke-linejoin="round" stroke-width="2"/>
      </g>
      <g id="Line_49">
        <line x1="-196.53088" y1="616.88836" x2="-196.53088" y2="607.65" marker-end="url(#FilledArrow_Marker)" stroke="black" stroke-linecap="round" stroke-linejoin="round" stroke-width="2"/>
      </g>
      <g id="Graphic_52">
        <path d="M 126 669.5149 L 888 669.5149 C 910.0914 669.5149 928 687.4235 928 709.5149 L 928 932 C 928 954.0914 910.0914 972 888 972 L 126 972 C 103.90861 972 86 954.0914 86 932 L 86 709.5149 C 86 687.4235 103.90861 669.5149 126 669.5149 Z" fill="url(#Obj_Gradient_2)"/>
        <text transform="translate(91 943)" fill="black">
          <tspan font-family="Inter" font-weight="bold" font-size="11" fill="black" x="378.04122" y="11" xml:space="preserve">Cross compile</tspan>
        </text>
      </g>
      <g id="Line_53">
        <path d="M 71.22368 367.62198 L 71.22368 829.5181 L 73.10195 829.5086" marker-end="url(#FilledArrow_Marker_2)" stroke="black" stroke-linecap="round" stroke-linejoin="round" stroke-width="2"/>
      </g>
      <g id="Line_54">
        <path d="M 928 818.7323 L 979.0288 818.4869 L 980.6023 589.1092 L 1014.0396 589.11846" marker-end="url(#FilledArrow_Marker_2)" stroke="black" stroke-linecap="round" stroke-linejoin="round" stroke-width="2"/>
      </g>
    </g>
    <g id="Canvas_1_LLVM">
      <title>LLVM</title>
      <g id="Graphic_15">
        <path d="M 683.83885 141.5 L 864 141.5 C 886.0914 141.5 904 159.40861 904 181.5 L 904 554 C 904 576.0914 886.0914 594 864 594 L 683.83885 594 C 661.74746 594 643.83885 576.0914 643.83885 554 L 643.83885 181.5 C 643.83885 159.40861 661.74746 141.5 683.83885 141.5 Z" fill="white"/>
        <path d="M 683.83885 141.5 L 864 141.5 C 886.0914 141.5 904 159.40861 904 181.5 L 904 554 C 904 576.0914 886.0914 594 864 594 L 683.83885 594 C 661.74746 594 643.83885 576.0914 643.83885 554 L 643.83885 181.5 C 643.83885 159.40861 661.74746 141.5 683.83885 141.5 Z" stroke="gray" stroke-linecap="round" stroke-linejoin="round" stroke-dasharray="2.0,8.0" stroke-width="2"/>
        <text transform="translate(648.83885 163.5)" fill="black">
          <tspan font-family="Inter" font-weight="bold" font-size="31" fill="black" x="84.76295" y="30" xml:space="preserve">LLVM</tspan>
        </text>
      </g>
      <g id="Graphic_14">
        <path d="M 704.1236 232.32245 L 848.8971 232.32245 C 854.4199 232.32245 858.8971 236.7996 858.8971 242.32245 L 858.8971 496.7912 C 858.8971 502.31405 854.4199 506.7912 848.8971 506.7912 L 704.1236 506.7912 C 698.6008 506.7912 694.1236 502.31405 694.1236 496.7912 L 694.1236 242.32245 C 694.1236 236.7996 698.6008 232.32245 704.1236 232.32245 Z" fill="#adbfef"/>
        <path d="M 704.1236 232.32245 L 848.8971 232.32245 C 854.4199 232.32245 858.8971 236.7996 858.8971 242.32245 L 858.8971 496.7912 C 858.8971 502.31405 854.4199 506.7912 848.8971 506.7912 L 704.1236 506.7912 C 698.6008 506.7912 694.1236 502.31405 694.1236 496.7912 L 694.1236 242.32245 C 694.1236 236.7996 698.6008 232.32245 704.1236 232.32245 Z" stroke="gray" stroke-linecap="round" stroke-linejoin="round" stroke-width="2"/>
        <text transform="translate(699.1236 349.55683)" fill="#626670">
          <tspan font-family="Inter" font-size="16" fill="#626670" x="56.04754" y="16" xml:space="preserve">LLVM</tspan>
          <tspan font-family="Inter" font-size="16" fill="#626670" x="43.067224" y="36" xml:space="preserve">Compiler</tspan>
        </text>
      </g>
      <g id="Graphic_10">
        <path d="M 1037.9396 362.88765 L 1129.0625 362.88765 C 1134.5853 362.88765 1139.0625 367.3648 1139.0625 372.88765 L 1139.0625 805.3877 C 1139.0625 810.9105 1134.5853 815.3877 1129.0625 815.3877 L 1037.9396 815.3877 C 1032.4168 815.3877 1027.9396 810.9105 1027.9396 805.3877 L 1027.9396 372.88765 C 1027.9396 367.3648 1032.4168 362.88765 1037.9396 362.88765 Z" fill="#ffbcb6"/>
        <path d="M 1037.9396 362.88765 L 1129.0625 362.88765 C 1134.5853 362.88765 1139.0625 367.3648 1139.0625 372.88765 L 1139.0625 805.3877 C 1139.0625 810.9105 1134.5853 815.3877 1129.0625 815.3877 L 1037.9396 815.3877 C 1032.4168 815.3877 1027.9396 810.9105 1027.9396 805.3877 L 1027.9396 372.88765 C 1027.9396 367.3648 1032.4168 362.88765 1037.9396 362.88765 Z" stroke="gray" stroke-linecap="round" stroke-linejoin="round" stroke-width="2"/>
        <text transform="translate(1032.9396 579.13765)" fill="#626670">
          <tspan font-family="Inter" font-size="16" fill="#626670" x="36.64713" y="16" xml:space="preserve">HW</tspan>
        </text>
      </g>
      <g id="Line_38">
        <path d="M 905 370.63106 L 979.8611 372.27646 L 980.1688 588.4927 L 1014.0399 588.7041" marker-end="url(#FilledArrow_Marker)" stroke="black" stroke-linecap="round" stroke-linejoin="round" stroke-width="2"/>
      </g>
    </g>
    <g id="Canvas_1_SKaiNET-lang">
      <title>SKaiNET-lang</title>
      <g id="Graphic_34">
        <path d="M -401.85864 141.25 L 8.796875 141.25 C 30.888265 141.25 48.796875 159.15861 48.796875 181.25 L 48.796875 553.75 C 48.796875 575.8414 30.888265 593.75 8.796875 593.75 L -401.85864 593.75 C -423.95003 593.75 -441.85864 575.8414 -441.85864 553.75 L -441.85864 181.25 C -441.85864 159.15861 -423.95003 141.25 -401.85864 141.25 Z" fill="#d3f5ff"/>
        <path d="M -401.85864 141.25 L 8.796875 141.25 C 30.888265 141.25 48.796875 159.15861 48.796875 181.25 L 48.796875 553.75 C 48.796875 575.8414 30.888265 593.75 8.796875 593.75 L -401.85864 593.75 C -423.95003 593.75 -441.85864 575.8414 -441.85864 553.75 L -441.85864 181.25 C -441.85864 159.15861 -423.95003 141.25 -401.85864 141.25 Z" stroke="gray" stroke-linecap="round" stroke-linejoin="round" stroke-dasharray="2.0,8.0" stroke-width="2"/>
        <text transform="translate(-436.85864 150.25)" fill="black">
          <tspan font-family="Inter" font-weight="bold" font-size="31" fill="black" x="177.74658" y="30" xml:space="preserve">SKaiNET</tspan>
        </text>
      </g>
      <g id="Graphic_26">
        <path d="M -99.02668 194.38258 L -14.253239 194.38258 C 7.838151 194.38258 25.74676 212.2912 25.74676 234.38258 L 25.74676 516.75 C 25.74676 538.8414 7.838151 556.75 -14.253239 556.75 L -99.02668 556.75 C -121.11807 556.75 -139.02668 538.8414 -139.02668 516.75 L -139.02668 234.38258 C -139.02668 212.2912 -121.11807 194.38258 -99.02668 194.38258 Z" fill="white"/>
        <path d="M -99.02668 194.38258 L -14.253239 194.38258 C 7.838151 194.38258 25.74676 212.2912 25.74676 234.38258 L 25.74676 516.75 C 25.74676 538.8414 7.838151 556.75 -14.253239 556.75 L -99.02668 556.75 C -121.11807 556.75 -139.02668 538.8414 -139.02668 516.75 L -139.02668 234.38258 C -139.02668 212.2912 -121.11807 194.38258 -99.02668 194.38258 Z" stroke="gray" stroke-linecap="round" stroke-linejoin="round" stroke-dasharray="2.0,8.0" stroke-width="2"/>
        <text transform="translate(-134.02668 506.75)" fill="black">
          <tspan font-family="Inter" font-weight="bold" font-size="11" fill="black" x="53.09361" y="11" xml:space="preserve">Compute</tspan>
          <tspan font-family="Inter" font-weight="bold" font-size="11" fill="black" x="61.17473" y="25" xml:space="preserve">Graph</tspan>
        </text>
      </g>
      <g id="Graphic_29">
        <path d="M -111.58579 277.8117 L -1.6941258 277.8117 C 3.8287217 277.8117 8.305874 282.28886 8.305874 287.8117 L 8.305874 438.4636 C 8.305874 443.98644 3.8287217 448.4636 -1.6941258 448.4636 L -111.58579 448.4636 C -117.10864 448.4636 -121.58579 443.98644 -121.58579 438.4636 L -121.58579 287.8117 C -121.58579 282.28886 -117.10864 277.8117 -111.58579 277.8117 Z" fill="#adbfef"/>
        <path d="M -111.58579 277.8117 L -1.6941258 277.8117 C 3.8287217 277.8117 8.305874 282.28886 8.305874 287.8117 L 8.305874 438.4636 C 8.305874 443.98644 3.8287217 448.4636 -1.6941258 448.4636 L -111.58579 448.4636 C -117.10864 448.4636 -121.58579 443.98644 -121.58579 438.4636 L -121.58579 287.8117 C -121.58579 282.28886 -117.10864 277.8117 -111.58579 277.8117 Z" stroke="gray" stroke-linecap="round" stroke-linejoin="round" stroke-width="2"/>
        <text transform="translate(-116.58579 353.13765)" fill="#626670">
          <tspan font-family="Inter" font-size="16" fill="#626670" x="43.17215" y="16" xml:space="preserve">DAG</tspan>
        </text>
      </g>
      <g id="Graphic_40">
        <path d="M -417.2809 617.88836 L 24.219117 617.88836 C 35.26481 617.88836 44.219117 626.84266 44.219117 637.88836 L 44.219117 724.8884 C 44.219117 735.93405 35.26481 744.8884 24.219117 744.8884 L -417.2809 744.8884 C -428.3266 744.8884 -437.2809 735.93405 -437.2809 724.8884 L -437.2809 637.88836 C -437.2809 626.84266 -428.3266 617.88836 -417.2809 617.88836 Z" fill="#e1fff8"/>
        <path d="M -417.2809 617.88836 L 24.219117 617.88836 C 35.26481 617.88836 44.219117 626.84266 44.219117 637.88836 L 44.219117 724.8884 C 44.219117 735.93405 35.26481 744.8884 24.219117 744.8884 L -417.2809 744.8884 C -428.3266 744.8884 -437.2809 735.93405 -437.2809 724.8884 L -437.2809 637.88836 C -437.2809 626.84266 -428.3266 617.88836 -417.2809 617.88836 Z" stroke="gray" stroke-linecap="round" stroke-linejoin="round" stroke-dasharray="2.0,8.0" stroke-width="2"/>
        <text transform="translate(-432.2809 721.88836)" fill="black">
          <tspan font-family="Inter" font-weight="bold" font-size="11" fill="black" x="214.0782" y="11" xml:space="preserve">Formats</tspan>
        </text>
      </g>
    </g>
    <g id="Canvas_1_SKaiNET-DAG">
      <title>SKaiNET-DAG</title>
      <g id="Graphic_32">
        <path d="M -376.21875 194.38258 L -224.67702 194.38258 C -202.58563 194.38258 -184.67702 212.2912 -184.67702 234.38258 L -184.67702 516.75 C -184.67702 538.8414 -202.58563 556.75 -224.67702 556.75 L -376.21875 556.75 C -398.31014 556.75 -416.21875 538.8414 -416.21875 516.75 L -416.21875 234.38258 C -416.21875 212.2912 -398.31014 194.38258 -376.21875 194.38258 Z" fill="white"/>
        <path d="M -376.21875 194.38258 L -224.67702 194.38258 C -202.58563 194.38258 -184.67702 212.2912 -184.67702 234.38258 L -184.67702 516.75 C -184.67702 538.8414 -202.58563 556.75 -224.67702 556.75 L -376.21875 556.75 C -398.31014 556.75 -416.21875 538.8414 -416.21875 516.75 L -416.21875 234.38258 C -416.21875 212.2912 -398.31014 194.38258 -376.21875 194.38258 Z" stroke="gray" stroke-linecap="round" stroke-linejoin="round" stroke-dasharray="2.0,8.0" stroke-width="2"/>
        <text transform="translate(-411.21875 517.75)" fill="black">
          <tspan font-family="Inter" font-weight="bold" font-size="14" fill="black" x="88.56175" y="14" xml:space="preserve">Define</tspan>
        </text>
      </g>
      <g id="Graphic_31">
        <path d="M -372.8346 376.3525 L -228.06116 376.3525 C -222.53832 376.3525 -218.06116 380.82964 -218.06116 386.3525 L -218.06116 427.5947 C -218.06116 433.1175 -222.53832 437.5947 -228.06116 437.5947 L -372.8346 437.5947 C -378.35745 437.5947 -382.8346 433.1175 -382.8346 427.5947 L -382.8346 386.3525 C -382.8346 380.82964 -378.35745 376.3525 -372.8346 376.3525 Z" fill="#adbfef"/>
        <path d="M -372.8346 376.3525 L -228.06116 376.3525 C -222.53832 376.3525 -218.06116 380.82964 -218.06116 386.3525 L -218.06116 427.5947 C -218.06116 433.1175 -222.53832 437.5947 -228.06116 437.5947 L -372.8346 437.5947 C -378.35745 437.5947 -382.8346 433.1175 -382.8346 427.5947 L -382.8346 386.3525 C -382.8346 380.82964 -378.35745 376.3525 -372.8346 376.3525 Z" stroke="gray" stroke-linecap="round" stroke-linejoin="round" stroke-width="2"/>
        <text transform="translate(-377.8346 396.9736)" fill="#626670">
          <tspan font-family="Inter" font-size="16" fill="#626670" x="53.77448" y="16" xml:space="preserve">Model</tspan>
        </text>
      </g>
      <g id="Graphic_30">
        <path d="M -372.8346 288.68063 L -228.06116 288.68063 C -222.53832 288.68063 -218.06116 293.1578 -218.06116 298.68063 L -218.06116 339.92282 C -218.06116 345.44567 -222.53832 349.9228 -228.06116 349.9228 L -372.8346 349.9228 C -378.35745 349.9228 -382.8346 345.44567 -382.8346 339.92282 L -382.8346 298.68063 C -382.8346 293.1578 -378.35745 288.68063 -372.8346 288.68063 Z" fill="#adbfef"/>
        <path d="M -372.8346 288.68063 L -228.06116 288.68063 C -222.53832 288.68063 -218.06116 293.1578 -218.06116 298.68063 L -218.06116 339.92282 C -218.06116 345.44567 -222.53832 349.9228 -228.06116 349.9228 L -372.8346 349.9228 C -378.35745 349.9228 -382.8346 345.44567 -382.8346 339.92282 L -382.8346 298.68063 C -382.8346 293.1578 -378.35745 288.68063 -372.8346 288.68063 Z" stroke="gray" stroke-linecap="round" stroke-linejoin="round" stroke-width="2"/>
        <text transform="translate(-377.8346 309.30173)" fill="#626670">
          <tspan font-family="Inter" font-size="16" fill="#626670" x="59.86138" y="16" xml:space="preserve">Data</tspan>
        </text>
      </g>
      <g id="Graphic_33">
        <path d="M -200.72645 490.1422 L -200.72645 242.07245 C -200.72645 236.5496 -196.2493 232.07245 -190.72645 232.07245 L -179.85054 232.07245 C -174.32769 232.07245 -169.85054 236.5496 -169.85054 242.07245 L -169.85054 490.1422 C -169.85054 495.66505 -174.32769 500.1422 -179.85054 500.1422 C -179.85054 500.1422 -179.85054 500.1422 -179.85054 500.1422 L -190.72645 500.1422 C -196.2493 500.1422 -200.72645 495.66505 -200.72645 490.1422 Z" fill="#ccc"/>
        <path d="M -200.72645 490.1422 L -200.72645 242.07245 C -200.72645 236.5496 -196.2493 232.07245 -190.72645 232.07245 L -179.85054 232.07245 C -174.32769 232.07245 -169.85054 236.5496 -169.85054 242.07245 L -169.85054 490.1422 C -169.85054 495.66505 -174.32769 500.1422 -179.85054 500.1422 C -179.85054 500.1422 -179.85054 500.1422 -179.85054 500.1422 L -190.72645 500.1422 C -196.2493 500.1422 -200.72645 495.66505 -200.72645 490.1422 Z" stroke="gray" stroke-linecap="round" stroke-linejoin="round" stroke-width="2"/>
        <text transform="translate(-194.7885 495.1422) rotate(-90)" fill="black">
          <tspan font-family="Inter" font-weight="bold" font-size="15" fill="black" x="76.44291" y="15" xml:space="preserve">Tape Recorder</tspan>
        </text>
      </g>
      <g id="Graphic_42">
        <path d="M -399.5504 650.7673 L -314.5504 650.7673 C -309.02755 650.7673 -304.5504 655.2444 -304.5504 660.7673 L -304.5504 702.00945 C -304.5504 707.5323 -309.02755 712.00945 -314.5504 712.00945 L -399.5504 712.00945 C -405.07324 712.00945 -409.5504 707.5323 -409.5504 702.00945 L -409.5504 660.7673 C -409.5504 655.2444 -405.07324 650.7673 -399.5504 650.7673 Z" fill="#67f1c5"/>
        <path d="M -399.5504 650.7673 L -314.5504 650.7673 C -309.02755 650.7673 -304.5504 655.2444 -304.5504 660.7673 L -304.5504 702.00945 C -304.5504 707.5323 -309.02755 712.00945 -314.5504 712.00945 L -399.5504 712.00945 C -405.07324 712.00945 -409.5504 707.5323 -409.5504 702.00945 L -409.5504 660.7673 C -409.5504 655.2444 -405.07324 650.7673 -399.5504 650.7673 Z" stroke="#207d65" stroke-linecap="round" stroke-linejoin="round" stroke-width="2"/>
        <text transform="translate(-404.5504 671.38836)" fill="#626670">
          <tspan font-family="Inter" font-size="16" fill="#626670" x="25.644156" y="16" xml:space="preserve">JSON</tspan>
        </text>
      </g>
      <g id="Graphic_43">
        <path d="M -69.24452 650.7673 L 15.755479 650.7673 C 21.278326 650.7673 25.75548 655.2444 25.75548 660.7673 L 25.75548 702.00945 C 25.75548 707.5323 21.278326 712.00945 15.755479 712.00945 L -69.24452 712.00945 C -74.76737 712.00945 -79.24452 707.5323 -79.24452 702.00945 L -79.24452 660.7673 C -79.24452 655.2444 -74.76737 650.7673 -69.24452 650.7673 Z" fill="#67f1c5"/>
        <path d="M -69.24452 650.7673 L 15.755479 650.7673 C 21.278326 650.7673 25.75548 655.2444 25.75548 660.7673 L 25.75548 702.00945 C 25.75548 707.5323 21.278326 712.00945 15.755479 712.00945 L -69.24452 712.00945 C -74.76737 712.00945 -79.24452 707.5323 -79.24452 702.00945 L -79.24452 660.7673 C -79.24452 655.2444 -74.76737 650.7673 -69.24452 650.7673 Z" stroke="#207d65" stroke-linecap="round" stroke-linejoin="round" stroke-width="2"/>
        <text transform="translate(-74.24452 671.38836)" fill="#626670">
          <tspan font-family="Inter" font-size="16" fill="#626670" x="24.987115" y="16" xml:space="preserve">GGUF</tspan>
        </text>
      </g>
      <g id="Graphic_44">
        <path d="M -289.4197 650.7673 L -204.4197 650.7673 C -198.89686 650.7673 -194.4197 655.2444 -194.4197 660.7673 L -194.4197 702.00945 C -194.4197 707.5323 -198.89686 712.00945 -204.4197 712.00945 L -289.4197 712.00945 C -294.94255 712.00945 -299.4197 707.5323 -299.4197 702.00945 L -299.4197 660.7673 C -299.4197 655.2444 -294.94255 650.7673 -289.4197 650.7673 Z" fill="#67f1c5"/>
        <path d="M -289.4197 650.7673 L -204.4197 650.7673 C -198.89686 650.7673 -194.4197 655.2444 -194.4197 660.7673 L -194.4197 702.00945 C -194.4197 707.5323 -198.89686 712.00945 -204.4197 712.00945 L -289.4197 712.00945 C -294.94255 712.00945 -299.4197 707.5323 -299.4197 702.00945 L -299.4197 660.7673 C -299.4197 655.2444 -294.94255 650.7673 -289.4197 650.7673 Z" stroke="#207d65" stroke-linecap="round" stroke-linejoin="round" stroke-width="2"/>
        <text transform="translate(-294.4197 671.38836)" fill="#626670">
          <tspan font-family="Inter" font-size="16" fill="#626670" x="23.78274" y="16" xml:space="preserve">ONNX</tspan>
        </text>
      </g>
      <g id="Graphic_45">
        <path d="M -179.28901 650.7673 L -94.28901 650.7673 C -88.76617 650.7673 -84.28901 655.2444 -84.28901 660.7673 L -84.28901 702.00945 C -84.28901 707.5323 -88.76617 712.00945 -94.28901 712.00945 L -179.28901 712.00945 C -184.81186 712.00945 -189.28901 707.5323 -189.28901 702.00945 L -189.28901 660.7673 C -189.28901 655.2444 -184.81186 650.7673 -179.28901 650.7673 Z" fill="#67f1c5"/>
        <path d="M -179.28901 650.7673 L -94.28901 650.7673 C -88.76617 650.7673 -84.28901 655.2444 -84.28901 660.7673 L -84.28901 702.00945 C -84.28901 707.5323 -88.76617 712.00945 -94.28901 712.00945 L -179.28901 712.00945 C -184.81186 712.00945 -189.28901 707.5323 -189.28901 702.00945 L -189.28901 660.7673 C -189.28901 655.2444 -184.81186 650.7673 -179.28901 650.7673 Z" stroke="#207d65" stroke-linecap="round" stroke-linejoin="round" stroke-width="2"/>
        <text transform="translate(-184.28901 671.38836)" fill="#626670">
          <tspan font-family="Inter" font-size="16" fill="#626670" x=".71342164" y="16" xml:space="preserve">SafeTensors</tspan>
        </text>
      </g>
    </g>
    <g id="Canvas_1_MLIR">
      <title>MLIR</title>
      <g id="Graphic_2">
        <path d="M 151.5 141.5 L 553 141.5 C 575.0914 141.5 593 159.40861 593 181.5 L 593 554 C 593 576.0914 575.0914 594 553 594 L 151.5 594 C 129.40861 594 111.5 576.0914 111.5 554 L 111.5 181.5 C 111.5 159.40861 129.40861 141.5 151.5 141.5 Z" fill="white"/>
        <path d="M 151.5 141.5 L 553 141.5 C 575.0914 141.5 593 159.40861 593 181.5 L 593 554 C 593 576.0914 575.0914 594 553 594 L 151.5 594 C 129.40861 594 111.5 576.0914 111.5 554 L 111.5 181.5 C 111.5 159.40861 129.40861 141.5 151.5 141.5 Z" stroke="gray" stroke-linecap="round" stroke-linejoin="round" stroke-dasharray="2.0,8.0" stroke-width="2"/>
        <text transform="translate(116.5 163.5)" fill="black">
          <tspan font-family="Inter" font-weight="bold" font-size="31" fill="black" x="199.62586" y="30" xml:space="preserve">MLIR</tspan>
        </text>
      </g>
      <g id="Graphic_28">
        <path d="M 401.6863 286.9319 L 546.45974 286.9319 C 551.9826 286.9319 556.45974 291.40905 556.45974 296.9319 L 556.45974 338.1741 C 556.45974 343.69693 551.9826 348.1741 546.45974 348.1741 L 401.6863 348.1741 C 396.16345 348.1741 391.6863 343.69693 391.6863 338.1741 L 391.6863 296.9319 C 391.6863 291.40905 396.16345 286.9319 401.6863 286.9319 Z" fill="#adbfef"/>
        <path d="M 401.6863 286.9319 L 546.45974 286.9319 C 551.9826 286.9319 556.45974 291.40905 556.45974 296.9319 L 556.45974 338.1741 C 556.45974 343.69693 551.9826 348.1741 546.45974 348.1741 L 401.6863 348.1741 C 396.16345 348.1741 391.6863 343.69693 391.6863 338.1741 L 391.6863 296.9319 C 391.6863 291.40905 396.16345 286.9319 401.6863 286.9319 Z" stroke="gray" stroke-linecap="round" stroke-linejoin="round" stroke-width="2"/>
        <text transform="translate(396.6863 307.553)" fill="#626670">
          <tspan font-family="Inter" font-size="16" fill="#626670" x="51.31056" y="16" xml:space="preserve">Tensor</tspan>
        </text>
      </g>
      <g id="Graphic_3">
        <path d="M 174.71951 229.12295 L 319.49295 229.12295 C 325.0158 229.12295 329.49295 233.6001 329.49295 239.12295 L 329.49295 493.5917 C 329.49295 499.11455 325.0158 503.5917 319.49295 503.5917 L 174.71951 503.5917 C 169.19666 503.5917 164.71951 499.11455 164.71951 493.5917 L 164.71951 239.12295 C 164.71951 233.6001 169.19666 229.12295 174.71951 229.12295 Z" fill="#adbfef"/>
        <path d="M 174.71951 229.12295 L 319.49295 229.12295 C 325.0158 229.12295 329.49295 233.6001 329.49295 239.12295 L 329.49295 493.5917 C 329.49295 499.11455 325.0158 503.5917 319.49295 503.5917 L 174.71951 503.5917 C 169.19666 503.5917 164.71951 499.11455 164.71951 493.5917 L 164.71951 239.12295 C 164.71951 233.6001 169.19666 229.12295 174.71951 229.12295 Z" stroke="gray" stroke-linecap="round" stroke-linejoin="round" stroke-width="2"/>
        <text transform="translate(169.71951 346.35733)" fill="#626670">
          <tspan font-family="Inter" font-size="16" fill="#626670" x="53.413814" y="16" xml:space="preserve">Stable</tspan>
          <tspan font-family="Inter" font-size="16" fill="#626670" x="61.06797" y="36" xml:space="preserve">HLO</tspan>
        </text>
      </g>
      <g id="Graphic_4">
        <path d="M 401.4763 194.63258 L 546.24974 194.63258 C 551.7726 194.63258 556.24974 199.10973 556.24974 204.63258 L 556.24974 245.87476 C 556.24974 251.3976 551.7726 255.87476 546.24974 255.87476 L 401.4763 255.87476 C 395.95345 255.87476 391.4763 251.3976 391.4763 245.87476 L 391.4763 204.63258 C 391.4763 199.10973 395.95345 194.63258 401.4763 194.63258 Z" fill="#adbfef"/>
        <path d="M 401.4763 194.63258 L 546.24974 194.63258 C 551.7726 194.63258 556.24974 199.10973 556.24974 204.63258 L 556.24974 245.87476 C 556.24974 251.3976 551.7726 255.87476 546.24974 255.87476 L 401.4763 255.87476 C 395.95345 255.87476 391.4763 251.3976 391.4763 245.87476 L 391.4763 204.63258 C 391.4763 199.10973 395.95345 194.63258 401.4763 194.63258 Z" stroke="gray" stroke-linecap="round" stroke-linejoin="round" stroke-width="2"/>
        <text transform="translate(396.4763 215.25367)" fill="#626670">
          <tspan font-family="Inter" font-size="16" fill="#626670" x="53.582065" y="16" xml:space="preserve">LinAlg</tspan>
        </text>
      </g>
      <g id="Graphic_7">
        <path d="M 401.41247 378.8112 L 546.1859 378.8112 C 551.70875 378.8112 556.1859 383.28837 556.1859 388.8112 L 556.1859 430.0534 C 556.1859 435.57626 551.70875 440.0534 546.1859 440.0534 L 401.41247 440.0534 C 395.8896 440.0534 391.41247 435.57626 391.41247 430.0534 L 391.41247 388.8112 C 391.41247 383.28837 395.8896 378.8112 401.41247 378.8112 Z" fill="#adbfef"/>
        <path d="M 401.41247 378.8112 L 546.1859 378.8112 C 551.70875 378.8112 556.1859 383.28837 556.1859 388.8112 L 556.1859 430.0534 C 556.1859 435.57626 551.70875 440.0534 546.1859 440.0534 L 401.41247 440.0534 C 395.8896 440.0534 391.41247 435.57626 391.41247 430.0534 L 391.41247 388.8112 C 391.41247 383.28837 395.8896 378.8112 401.41247 378.8112 Z" stroke="gray" stroke-linecap="round" stroke-linejoin="round" stroke-width="2"/>
        <text transform="translate(396.41247 399.4323)" fill="#626670">
          <tspan font-family="Inter" font-size="16" fill="#626670" x="58.11859" y="16" xml:space="preserve">Math</tspan>
        </text>
      </g>
      <g id="Graphic_8">
        <path d="M 401.41247 470.90054 L 546.1859 470.90054 C 551.70875 470.90054 556.1859 475.3777 556.1859 480.90054 L 556.1859 522.14273 C 556.1859 527.6656 551.70875 532.1427 546.1859 532.1427 L 401.41247 532.1427 C 395.8896 532.1427 391.41247 527.6656 391.41247 522.14273 L 391.41247 480.90054 C 391.41247 475.3777 395.8896 470.90054 401.41247 470.90054 Z" fill="#adbfef"/>
        <path d="M 401.41247 470.90054 L 546.1859 470.90054 C 551.70875 470.90054 556.1859 475.3777 556.1859 480.90054 L 556.1859 522.14273 C 556.1859 527.6656 551.70875 532.1427 546.1859 532.1427 L 401.41247 532.1427 C 395.8896 532.1427 391.41247 527.6656 391.41247 522.14273 L 391.41247 480.90054 C 391.41247 475.3777 395.8896 470.90054 401.41247 470.90054 Z" stroke="gray" stroke-linecap="round" stroke-linejoin="round" stroke-width="2"/>
        <text transform="translate(396.41247 491.52164)" fill="#626670">
          <tspan font-family="Inter" font-size="16" fill="#626670" x="52.48073" y="16" xml:space="preserve">Vector</tspan>
        </text>
      </g>
      <g id="Line_22">
        <line x1="594" y1="368.77956" x2="680.22374" y2="369.14677" marker-end="url(#FilledArrow_Marker)" stroke="black" stroke-linecap="round" stroke-linejoin="round" stroke-width="2"/>
      </g>
      <g id="Line_25">
        <line x1="329.49295" y1="362.88765" x2="378.78633" y2="362.98755" marker-end="url(#FilledArrow_Marker)" stroke="black" stroke-linecap="round" stroke-linejoin="round" stroke-width="2"/>
      </g>
      <g id="Line_36">
        <line x1="-164.41106" y1="376.3525" x2="-152.92633" y2="376.2687" marker-end="url(#FilledArrow_Marker)" stroke="black" stroke-linecap="round" stroke-linejoin="round" stroke-width="2"/>
      </g>
      <g id="Graphic_50">
        <path d="M 243.68105 703.55874 L 395.2228 703.55874 C 417.31417 703.55874 435.2228 721.46735 435.2228 743.55874 L 435.2228 889.734 C 435.2228 911.8254 417.31417 929.734 395.2228 929.734 L 243.68105 929.734 C 221.58966 929.734 203.68105 911.8254 203.68105 889.734 L 203.68105 743.55874 C 203.68105 721.46735 221.58966 703.55874 243.68105 703.55874 Z" fill="white"/>
        <path d="M 243.68105 703.55874 L 395.2228 703.55874 C 417.31417 703.55874 435.2228 721.46735 435.2228 743.55874 L 435.2228 889.734 C 435.2228 911.8254 417.31417 929.734 395.2228 929.734 L 243.68105 929.734 C 221.58966 929.734 203.68105 911.8254 203.68105 889.734 L 203.68105 743.55874 C 203.68105 721.46735 221.58966 703.55874 243.68105 703.55874 Z" stroke="gray" stroke-linecap="round" stroke-linejoin="round" stroke-dasharray="2.0,8.0" stroke-width="2"/>
        <text transform="translate(208.68105 725.55874)" fill="black">
          <tspan font-family="Inter" font-weight="bold" font-size="31" fill="black" x="72.925586" y="30" xml:space="preserve">Code </tspan>
          <tspan font-family="Inter" font-weight="bold" font-size="31" fill="black" x="34.128686" y="67" xml:space="preserve">generators</tspan>
        </text>
      </g>
      <g id="Graphic_51">
        <path d="M 247.0652 814.1724 L 391.83863 814.1724 C 397.3615 814.1724 401.83863 818.6496 401.83863 824.1724 L 401.83863 894.5507 C 401.83863 900.0736 397.3615 904.5507 391.83863 904.5507 L 247.0652 904.5507 C 241.54235 904.5507 237.0652 900.0736 237.0652 894.5507 L 237.0652 824.1724 C 237.0652 818.6496 241.54235 814.1724 247.0652 814.1724 Z" fill="#adbfef"/>
        <path d="M 247.0652 814.1724 L 391.83863 814.1724 C 397.3615 814.1724 401.83863 818.6496 401.83863 824.1724 L 401.83863 894.5507 C 401.83863 900.0736 397.3615 904.5507 391.83863 904.5507 L 247.0652 904.5507 C 241.54235 904.5507 237.0652 900.0736 237.0652 894.5507 L 237.0652 824.1724 C 237.0652 818.6496 241.54235 814.1724 247.0652 814.1724 Z" stroke="gray" stroke-linecap="round" stroke-linejoin="round" stroke-width="2"/>
        <text transform="translate(242.0652 839.3616)" fill="#626670">
          <tspan font-family="Inter" font-size="16" fill="#626670" x="47.600927" y="16" xml:space="preserve">Arduino </tspan>
          <tspan font-family="Inter" font-size="16" fill="#626670" x="14.298017" y="36" xml:space="preserve">CCodegenerator</tspan>
        </text>
      </g>
      <g id="Graphic_55">
        <path d="M 582.4017 699.0071 L 733.9434 699.0071 C 756.0348 699.0071 773.9434 716.9157 773.9434 739.0071 L 773.9434 885.1824 C 773.9434 907.2738 756.0348 925.1824 733.9434 925.1824 L 582.4017 925.1824 C 560.3103 925.1824 542.4017 907.2738 542.4017 885.1824 L 542.4017 739.0071 C 542.4017 716.9157 560.3103 699.0071 582.4017 699.0071 Z" fill="white"/>
        <path d="M 582.4017 699.0071 L 733.9434 699.0071 C 756.0348 699.0071 773.9434 716.9157 773.9434 739.0071 L 773.9434 885.1824 C 773.9434 907.2738 756.0348 925.1824 733.9434 925.1824 L 582.4017 925.1824 C 560.3103 925.1824 542.4017 907.2738 542.4017 885.1824 L 542.4017 739.0071 C 542.4017 716.9157 560.3103 699.0071 582.4017 699.0071 Z" stroke="gray" stroke-linecap="round" stroke-linejoin="round" stroke-dasharray="2.0,8.0" stroke-width="2"/>
        <text transform="translate(547.4017 721.0071)" fill="black">
          <tspan font-family="Inter" font-weight="bold" font-size="31" fill="black" x="65.383814" y="30" xml:space="preserve">Native </tspan>
          <tspan font-family="Inter" font-weight="bold" font-size="31" fill="black" x="41.531705" y="67" xml:space="preserve">compilers</tspan>
        </text>
      </g>
      <g id="Graphic_56">
        <path d="M 591.28855 814.1724 L 736.062 814.1724 C 741.5848 814.1724 746.062 818.6496 746.062 824.1724 L 746.062 894.5507 C 746.062 900.0736 741.5848 904.5507 736.062 904.5507 L 591.28855 904.5507 C 585.7657 904.5507 581.28855 900.0736 581.28855 894.5507 L 581.28855 824.1724 C 581.28855 818.6496 585.7657 814.1724 591.28855 814.1724 Z" fill="#adbfef"/>
        <path d="M 591.28855 814.1724 L 736.062 814.1724 C 741.5848 814.1724 746.062 818.6496 746.062 824.1724 L 746.062 894.5507 C 746.062 900.0736 741.5848 904.5507 736.062 904.5507 L 591.28855 904.5507 C 585.7657 904.5507 581.28855 900.0736 581.28855 894.5507 L 581.28855 824.1724 C 581.28855 818.6496 585.7657 814.1724 591.28855 814.1724 Z" stroke="gray" stroke-linecap="round" stroke-linejoin="round" stroke-width="2"/>
        <text transform="translate(586.28855 849.3616)" fill="#626670">
          <tspan font-family="Inter" font-size="16" fill="#626670" x="29.814244" y="16" xml:space="preserve">ArtuinoTools</tspan>
        </text>
      </g>
    </g>
  </g>
</svg>
